<svg xmlns="http://www.w3.org/2000/svg" xmlns:xlink="http://www.w3.org/1999/xlink" width="500" zoomAndPan="magnify" viewBox="0 0 375 374.999991" height="500" preserveAspectRatio="xMidYMid meet" version="1.0"><defs><filter x="0%" y="0%" width="100%" height="100%" id="9cf6898093"><feColorMatrix values="0 0 0 0 1 0 0 0 0 1 0 0 0 0 1 0 0 0 1 0" color-interpolation-filters="sRGB"/></filter><clipPath id="39c760990f"><path d="M 16.519531 132 L 299 132 L 299 339 L 16.519531 339 Z M 16.519531 132 " clip-rule="nonzero"/></clipPath><mask id="445cb0e32b"><g filter="url(#9cf6898093)"><rect x="-37.5" width="450" fill="#000000" y="-37.499999" height="449.999989" fill-opacity="0.16"/></g></mask><clipPath id="164baf3395"><path d="M 0.378906 132 L 283 132 L 283 339 L 0.378906 339 Z M 0.378906 132 " clip-rule="nonzero"/></clipPath><clipPath id="14efffc8c1"><rect x="0" width="306" y="0" height="345"/></clipPath></defs><g clip-path="url(#39c760990f)"><path fill="#10588c" d="M 16.511719 336.675781 C 159.085938 319.320312 210.40625 224.042969 240.773438 165.390625 C 266.804688 115.113281 313.890625 125.976562 293.65625 177.0625 C 263.335938 253.617188 148.914062 353.601562 16.511719 336.675781 Z M 16.511719 336.675781 " fill-opacity="1" fill-rule="evenodd"/></g><path fill="#0090d1" d="M 104.230469 293 C 178.898438 220.808594 194.3125 130.121094 187.515625 66.691406 C 181.949219 14.777344 236.425781 0.109375 243.007812 51.066406 C 252.808594 126.925781 188.171875 253.21875 104.230469 293 Z M 104.230469 293 " fill-opacity="1" fill-rule="evenodd"/><path fill="#4cb6c6" d="M 121.410156 335.84375 C 181.632812 321.476562 228.273438 298.429688 265.382812 255.777344 C 295.632812 221.011719 321.625 246.539062 292.550781 283.132812 C 250.25 336.378906 161.480469 347.929688 121.410156 335.84375 Z M 121.410156 335.84375 " fill-opacity="1" fill-rule="evenodd"/><g mask="url(#445cb0e32b)"><g transform="matrix(1, 0, 0, 1, 32, 0)"><g clip-path="url(#14efffc8c1)"><g clip-path="url(#164baf3395)"><path fill="#10588c" d="M 0.375 336.675781 C 142.949219 319.320312 194.269531 224.042969 224.632812 165.390625 C 250.667969 115.113281 297.75 125.976562 277.519531 177.0625 C 247.199219 253.617188 132.777344 353.601562 0.375 336.675781 Z M 0.375 336.675781 " fill-opacity="1" fill-rule="evenodd"/></g><path fill="#0090d1" d="M 88.089844 293 C 162.761719 220.808594 178.175781 130.121094 171.375 66.691406 C 165.8125 14.777344 220.289062 0.109375 226.867188 51.066406 C 236.671875 126.925781 172.03125 253.21875 88.089844 293 Z M 88.089844 293 " fill-opacity="1" fill-rule="evenodd"/><path fill="#4cb6c6" d="M 105.273438 335.84375 C 165.496094 321.476562 212.132812 298.429688 249.242188 255.777344 C 279.492188 221.011719 305.484375 246.539062 276.414062 283.132812 C 234.109375 336.378906 145.339844 347.929688 105.273438 335.84375 Z M 105.273438 335.84375 " fill-opacity="1" fill-rule="evenodd"/></g></g></g></svg>